<svg width="131.500000" height="52.000000" viewBox="0 0 131.5 52" fill="none" xmlns="http://www.w3.org/2000/svg" xmlns:xlink="http://www.w3.org/1999/xlink">
	<desc>
			Created with Pixso.
	</desc>
	<defs/>
	<path id="Vector" d="M105.5 51C119.3 51 130.5 39.8 130.5 26C130.5 12.19 119.3 1 105.5 1C91.69 1 80.5 12.19 80.5 26C80.5 39.8 91.69 51 105.5 51Z" fill="#FFA63A" fill-opacity="1.000000" fill-rule="nonzero"/>
	<path id="Vector" d="M105.5 51C91.69 51 80.5 39.8 80.5 26C80.5 12.19 91.69 1 105.5 1C119.3 1 130.5 12.19 130.5 26C130.5 39.8 119.3 51 105.5 51Z" stroke="#FFA800" stroke-opacity="1.000000" stroke-width="2.000000" stroke-linejoin="round"/>
	<path id="Vector" d="M105.5 36L115.5 26L105.5 16" stroke="#FFFFFF" stroke-opacity="1.000000" stroke-width="2.000000" stroke-linejoin="round" stroke-linecap="round"/>
	<path id="Vector" d="M95.5 26L115.5 26" stroke="#FFFFFF" stroke-opacity="1.000000" stroke-width="2.000000" stroke-linejoin="round" stroke-linecap="round"/>
	<path id="Vector" d="M25.5 51C11.69 51 0.5 39.8 0.5 26C0.5 12.19 11.69 1 25.5 1C39.3 1 50.5 12.19 50.5 26C50.5 39.8 39.3 51 25.5 51Z" stroke="#FFA800" stroke-opacity="1.000000" stroke-width="1.000000" stroke-linejoin="round"/>
	<path id="Vector" d="M25.5 16L15.5 26L25.5 36" stroke="#FFA800" stroke-opacity="1.000000" stroke-width="2.000000" stroke-linejoin="round" stroke-linecap="round"/>
	<path id="Vector" d="M35.5 26L15.5 26" stroke="#FFA800" stroke-opacity="1.000000" stroke-width="2.000000" stroke-linejoin="round" stroke-linecap="round"/>
</svg>
