<svg width="50.000000" height="50.000000" viewBox="0 0 50 50" fill="none" xmlns="http://www.w3.org/2000/svg" xmlns:xlink="http://www.w3.org/1999/xlink">
	<desc>
			Created with Pixso.
	</desc>
	<defs/>
	<circle id="Ellipse 2" cx="25.000000" cy="25.000000" r="25.000000" fill="#FFA800" fill-opacity="1.000000"/>
	<path id="Vector" d="M16.75 32.44L15.5 32.44C14.83 32.44 14.2 32.15 13.73 31.63C13.26 31.1 13 30.4 13 29.66L13 15.77C13 15.04 13.26 14.33 13.73 13.81C14.2 13.29 14.83 13 15.5 13L35.5 13C36.16 13 36.79 13.29 37.26 13.81C37.73 14.33 38 15.04 38 15.77L38 29.66C38 30.4 37.73 31.1 37.26 31.63C36.79 32.15 36.16 32.44 35.5 32.44L34.25 32.44" stroke="#FFFFFF" stroke-opacity="1.000000" stroke-width="3.000000" stroke-linejoin="round" stroke-linecap="round"/>
	<path id="Vector" d="M31.75 38L19.25 38L25.5 29.66L31.75 38Z" stroke="#FFFFFF" stroke-opacity="1.000000" stroke-width="3.000000" stroke-linejoin="round"/>
</svg>
