<svg width="245.000000" height="33.000000" viewBox="0 0 245 33" fill="none" xmlns="http://www.w3.org/2000/svg" xmlns:xlink="http://www.w3.org/1999/xlink">
	<desc>
			Created with Pixso.
	</desc>
	<defs>
		<clipPath id="clip26_91">
			<rect id="facebook 1" rx="0.000000" width="29.000000" height="29.000000" transform="translate(0.500000 2.000000)" fill="white" fill-opacity="0"/>
		</clipPath>
	</defs>
	<rect id="facebook 1" rx="0.000000" width="29.000000" height="29.000000" transform="translate(0.500000 2.000000)" fill="#FFFFFF" fill-opacity="0"/>
	<g clip-path="url(#clip26_91)">
		<path id="Vector" d="M19.99 6.48L22.73 6.48L22.73 1.71C22.26 1.64 20.63 1.5 18.74 1.5C14.79 1.5 12.09 3.98 12.09 8.54L12.09 12.75L7.73 12.75L7.73 18.08L12.09 18.08L12.09 31.5L17.43 31.5L17.43 18.08L21.61 18.08L22.27 12.75L17.43 12.75L17.43 9.07C17.43 7.53 17.84 6.48 19.99 6.48Z" fill="#757575" fill-opacity="1.000000" fill-rule="nonzero"/>
	</g>
	<path id="Vector" d="M92.5 1.5C96.64 1.5 100 4.85 100 9L100 24C100 28.14 96.64 31.5 92.5 31.5L77.5 31.5C73.35 31.5 70 28.14 70 24L70 9C70 4.85 73.35 1.5 77.5 1.5L92.5 1.5Z" stroke="#757575" stroke-opacity="1.000000" stroke-width="3.000000" stroke-linejoin="round"/>
	<path id="Vector" d="M90.39 19.19C89.8 20.31 88.88 21.22 87.76 21.79C86.63 22.36 85.35 22.55 84.11 22.35C82.86 22.15 81.71 21.56 80.82 20.67C79.92 19.78 79.34 18.63 79.14 17.38C78.94 16.14 79.13 14.86 79.7 13.73C80.27 12.6 81.18 11.68 82.3 11.1C83.42 10.52 84.69 10.31 85.94 10.49C87.21 10.68 88.39 11.28 89.3 12.19C90.21 13.1 90.81 14.28 91 15.55C91.18 16.8 90.97 18.07 90.39 19.19Z" stroke="#757575" stroke-opacity="1.000000" stroke-width="3.000000" stroke-linejoin="round"/>
	<path id="Vector" d="M93.25 8.25L93.26 8.25" stroke="#757575" stroke-opacity="1.000000" stroke-width="3.000000" stroke-linejoin="round" stroke-linecap="round"/>
	<path id="Vector" d="M175 1.51C173.47 2.64 171.79 3.5 170 4.07C169.04 2.91 167.77 2.09 166.35 1.72C164.94 1.35 163.44 1.44 162.08 1.99C160.72 2.53 159.55 3.51 158.72 4.78C157.91 6.05 157.48 7.55 157.5 9.09L157.5 10.76C154.7 10.83 151.93 10.18 149.43 8.86C146.93 7.54 144.78 5.59 143.18 3.18C143.18 3.18 136.81 18.23 151.13 24.92C147.86 27.26 143.95 28.43 140 28.26C154.31 36.62 171.81 28.26 171.81 9.04C171.81 8.57 171.77 8.1 171.69 7.65C173.31 5.96 174.46 3.84 175 1.51Z" fill="#FFA800" fill-opacity="1.000000" fill-rule="nonzero"/>
	<path id="Vector" d="M236 10.97C238.38 10.97 240.67 11.97 242.36 13.74C244.05 15.52 245 17.93 245 20.44L245 31.5L239 31.5L239 20.44C239 19.6 238.68 18.8 238.12 18.21C237.55 17.62 236.79 17.28 236 17.28C235.2 17.28 234.44 17.62 233.87 18.21C233.31 18.8 233 19.6 233 20.44L233 31.5L227 31.5L227 20.44C227 17.93 227.94 15.52 229.63 13.74C231.32 11.97 233.61 10.97 236 10.97Z" fill="#757575" fill-opacity="1.000000" fill-rule="nonzero"/>
	<path id="Vector" d="M215 12.55L221 12.55L221 31.5L215 31.5L215 12.55Z" fill="#757575" fill-opacity="1.000000" fill-rule="evenodd"/>
	<path id="Vector" d="M221 4.65C221 6.4 219.65 7.81 218 7.81C216.34 7.81 215 6.4 215 4.65C215 2.91 216.34 1.5 218 1.5C219.65 1.5 221 2.91 221 4.65Z" fill="#757575" fill-opacity="1.000000" fill-rule="evenodd"/>
</svg>
