<svg width="28.000000" height="28.000000" viewBox="0 0 28 28" fill="none" xmlns="http://www.w3.org/2000/svg" xmlns:xlink="http://www.w3.org/1999/xlink">
	<desc>
			Created with Pixso.
	</desc>
	<defs/>
	<path id="Vector" d="M14 9C11.92 9 10.25 7.32 10.25 5.25C10.25 3.17 11.92 1.5 14 1.5C16.07 1.5 17.75 3.17 17.75 5.25C17.75 7.32 16.07 9 14 9Z" stroke="#08546C" stroke-opacity="1.000000" stroke-width="3.000000" stroke-linejoin="round"/>
	<path id="Vector" d="M14 26.5L14 9" stroke="#08546C" stroke-opacity="1.000000" stroke-width="3.000000" stroke-linejoin="round" stroke-linecap="round"/>
	<path id="Vector" d="M5.25 14L1.5 14C1.5 17.31 2.81 20.49 5.16 22.83C7.5 25.18 10.68 26.5 14 26.5C17.31 26.5 20.49 25.18 22.83 22.83C25.18 20.49 26.5 17.31 26.5 14L22.75 14" stroke="#08546C" stroke-opacity="1.000000" stroke-width="3.000000" stroke-linejoin="round" stroke-linecap="round"/>
</svg>
