<svg width="50.213867" height="37.207275" viewBox="0 0 50.2139 37.2073" fill="none" xmlns="http://www.w3.org/2000/svg" xmlns:xlink="http://www.w3.org/1999/xlink">
	<desc>
			Created with Pixso.
	</desc>
	<defs/>
	<path id="Vector" d="M50.09 20.28L37.97 20.21C38.22 11.38 40.74 10.39 43.89 10.12L45.1 9.98L45.16 0.26L43.76 0.32C39.65 0.53 35.1 1.25 32.04 4.97C29.37 8.24 28.16 13.59 28.11 21.82L28.02 37.07L49.99 37.2L50.09 20.28Z" fill="#A7C1CA" fill-opacity="1.000000" fill-rule="nonzero"/>
	<path id="Vector" d="M21.96 37.04L22.06 20.12L10.1 20.05C10.36 11.21 12.79 10.22 15.94 9.96L17.07 9.81L17.13 0.09L15.81 0.16C11.7 0.37 7.11 1.08 4.05 4.81C1.38 8.08 0.13 13.43 0.08 21.66L0 36.91L21.96 37.04Z" fill="#A7C1CA" fill-opacity="1.000000" fill-rule="nonzero"/>
</svg>
